# xmcd
#
# Track frame offsets:
#	150
#	13122
#	27557
#	42675
#	57525
#	70282
#	84792
#	99620
#	112060
#	125015
#	139450
#	151530
#	165310
#	180742
#	196280
#	209825
#	225110
#	238732
#	251237
#	264915
#
# Disc length: 3720 seconds
#
# Revision: 2
# Processed by: cddbd v1.5.2PL0 Copyright (c) Steve Scherf et al.
# Submitted via: audiograbber 1.83.01
#
DISCID=200e8614
DTITLE=Various Artist - Deep In A Dream
DYEAR=1996
DGENRE=Easy Listening
TTITLE0=The Pied Pipers - Dream
TTITLE1=Frank Sinatra with Axel Stordahl and His Orchestra - I Dream Of You (Nore
TTITLE1=Than You Dream I Do)
TTITLE2=Doris Day with Les Brown and His Orchestra - My Dreams Are Getting Better
TTITLE3=The Mills Brothers - Meet Me Tonight In Dreamland
TTITLE4=Fats Waller and His Rhythm, Vocals: Fats Waller - Have A Little Dream On 
TTITLE4=Me
TTITLE5=Benny Carter and His Orchestra - Dream Lullaby
TTITLE6=The Ink Spots - Someone's Rocking My Dreamboat
TTITLE7=Lena Horne with Orchestra Conducted by Lou Bring - When Or Where
TTITLE8=Ambrose and his Orchestra, vocal: Denny Dennis - I've Got A Pocketful Of 
TTITLE8=Dreams
TTITLE9=Benny Goodman And His Orchestra - If Dreams Come True
TTITLE10=Billie Holliday and Her Orchestra (Vocal: Billie Holiday) - Iv'e Got A
TTITLE10=Date With A Dream
TTITLE11=Al Bowlly with Ray Noble and His Orchestra - Dreaming A Dream
TTITLE12=Woody Herman and His Orchestra - Laura
TTITLE13=Helen Forrest with With Harry James And His Orchestra - I Had The Craz
TTITLE13=iest Dream
TTITLE14=Johnny Hodges and His Orchestra - Day Dream
TTITLE15=Bing Crosby with Lennie Hayton and His Orchestra - Did You Ever See A Dr
TTITLE15=eam Walking?
TTITLE16=Hutch - Yesterday's Dreams
TTITLE17=Cozy Cole All Stars featuring Coleman Hawkins - Wrap Your Troubles In 
TTITLE17=Dreams (And Dream Your Troubles Away)
TTITLE18=Judy Garland with Orchestra Conducted by David Rose - I'm Always Chasi
TTITLE18=ng Rainbows
TTITLE19=Frank Sinatra with Axel Stordahl and His Orchestra - Put Your Dreams Awa
TTITLE19=y (For Another Day)
EXTD=
EXTT0=
EXTT1=
EXTT2=
EXTT3=
EXTT4=
EXTT5=
EXTT6=
EXTT7=
EXTT8=
EXTT9=
EXTT10=
EXTT11=
EXTT12=
EXTT13=
EXTT14=
EXTT15=
EXTT16=
EXTT17=
EXTT18=
EXTT19=
PLAYORDER=
